<?xml version="1.0" encoding="utf-8"?><!--Generator: Adobe Illustrator 25.0.0, SVG Export Plug-In . SVG Version: 6.00 Build 0)--><svg version="1.1" id="Layer_1" xmlns="http://www.w3.org/2000/svg" xmlns:xlink="http://www.w3.org/1999/xlink" x="0px" y="0px" viewBox="0 0 559.7 191.9" style="enable-background:new 0 0 559.7 191.9;" xml:space="preserve"><style type="text/css">.st0{fill:#263E7F;}</style><g><path class="st0" d="M163.4,47.7c-23.9-13.8-57.5-33.2-81.3-47C62.5,12.1,19.7,36.8,0,48.2c0,29.2,0,65.6,0,94.8
		c20.4,11.8,61.8,35.7,82.2,47.5c26.5-15.3,55.8-32.2,82.3-47.5c0-29.2,0-65.5,0-94.7L163.4,47.7z M162.5,50.7c0,27.9,0,63.3,0,91.2
		c-25.7,14.8-54.7,31.5-80.3,46.3c-18.4-10.6-61.7-35.6-80.1-46.3c0-28.3,0-64.1,0-92.5C19.6,39.2,64.6,13.3,82.2,3.1
		c23.3,13.5,56.8,32.8,80.3,46.3V50.7z"/><path class="st0" d="M149.6,46.8L86,10.2c-2.3-1.3-5.2-1.3-7.5,0L10.1,49.7c-2.3,1.3-3.8,3.8-3.8,6.5v78c0,2.7,1.4,5.2,3.8,6.5
		L78.5,180c2.3,1.3,5.2,1.3,7.5,0l68.4-39.5c2.3-1.3,3.8-3.8,3.8-6.5v-14.7c0-4.1-3.4-7.5-7.5-7.5c-11.9,0-34,0-38.4,0
		c0,0-1.8-1-1.8-1S90.2,99.1,84.2,95.6C104,84.2,129.7,69.5,149.6,58v15h8.5v-17c0-2.7-1.4-5.2-3.8-6.5L149.6,46.8z M17.6,56.2
		l48-27.7C60.1,38,46.5,61.5,41.1,70.8L16.7,56.7L17.6,56.2z M41.9,73.6l38.2,22l-17.8,10.2L37.1,81.7L41.9,73.6z M14.9,58.1
		l25.1,14.5L39.8,73l-4.2,7.2C31,75.8,19.7,65,14.9,60.5V58.1z M14.9,111.8c0-7.2,0-42,0-48.5c4.9,4.7,14.7,14.1,19.6,18.8
		c-1.5,2.6-18.7,32.4-19.6,33.9V111.8z M14.9,133.1c0-3,0-10.1,0-13c3.2-5.5,17.7-30.5,21.1-36.5l24.4,23.3
		C46.5,115,28.9,125.1,14.9,133.1z M81.1,133.1v38.7l-64.6-37.2c14-8.1,31.4-18.1,45.5-26.1c5.6,5.4,13.6,13,19.1,18.3V133.1z
		 M81.1,111.8c0,2.5,0,9.7,0,12.1c-4.8-4.6-12.5-12-17.3-16.6l17.3-9.9V111.8z M81.1,56.2c0,9.2,0,28.4,0,37.7L45,73l-2.1-1.2
		c5.7-9.8,20.5-35.3,26.3-45.4c0,0,11.9-6.9,11.9-6.9V56.2z M110.5,155.1c-5.9,3.4-21.3,12.3-27.3,15.8c0-2.7,0-40.7,0-42.2
		c7.7,7.3,19.8,19,27.5,26.3L110.5,155.1z M149.6,120.4c0,2.6,0,9.4,0,12.1l-0.8,0.4c-4.8-2.8-17.1-9.9-21.8-12.6H149.6z
		 M101.2,107.8l7,4.1h0c-3.9,0-7,3.1-7,7v14.2h9.4v-12.7H123c5.7,3.3,18.1,10.4,23.8,13.7l-34.4,19.8c-8.9-8.5-20.5-19.6-29.3-28.1
		V97.4L101.2,107.8z M148.7,56.2c-19.5,11.2-46.2,26.6-65.5,37.7c0-21.1,0-54.2,0-75.5l-0.1,0l0.1,0v0.1
		C99.8,28,131.8,46.4,148.7,56.2L148.7,56.2z"/></g><g><g><path class="st0" d="M189.5,103c-1.6,0-3.1-0.5-4.4-1.4c-1.4-0.9-2.4-2.2-3.2-3.7c-0.8-1.6-1.2-3.2-1.2-5.1V62.4
			c0-1.8,0.4-3.5,1.2-5.1c0.8-1.6,1.9-2.8,3.2-3.7c1.4-0.9,2.8-1.4,4.4-1.4H216c1.6,0,3.1,0.5,4.4,1.4c1.4,0.9,2.4,2.2,3.3,3.7
			c0.8,1.6,1.2,3.2,1.2,5.1v4.4h-9v-3.9c0-0.1,0-0.2-0.1-0.3c-0.1-0.1-0.2-0.1-0.2-0.1h-25.7c-0.1,0-0.2,0-0.2,0.1
			c-0.1,0.1-0.1,0.2-0.1,0.3v29.5c0,0.1,0,0.2,0.1,0.3c0.1,0.1,0.2,0.1,0.2,0.1h25.7c0.1,0,0.2,0,0.2-0.1c0.1-0.1,0.1-0.2,0.1-0.3
			V84h-9.8V73.8h18.7v19c0,1.8-0.4,3.5-1.2,5.1c-0.8,1.6-1.9,2.8-3.3,3.7c-1.4,0.9-2.8,1.4-4.4,1.4H189.5z"/><path class="st0" d="M238,103V52.2h40.8v10.2h-31.8v10h25.6v10.3h-25.6v10h31.8V103H238z"/><path class="st0" d="M291.1,103V52.2h9.4l25.9,35.4V52.2h9V103h-9.4l-26-35.6V103H291.1z"/><path class="st0" d="M348.5,103V52.2h40.8v10.2h-31.8v10h25.6v10.3h-25.6v10h31.8V103H348.5z"/><path class="st0" d="M410.3,103c-1.6,0-3.1-0.5-4.4-1.4c-1.4-0.9-2.4-2.2-3.2-3.7c-0.8-1.6-1.2-3.2-1.2-5.1v-4.3h8.9v3.8
			c0,0.1,0,0.2,0.1,0.3c0.1,0.1,0.1,0.1,0.2,0.1h25.8c0.1,0,0.2,0,0.2-0.1c0.1-0.1,0.1-0.2,0.1-0.3v-9.2c0-0.1,0-0.2-0.1-0.2
			c-0.1-0.1-0.2-0.1-0.2-0.1h-26.1c-1.6,0-3.1-0.5-4.4-1.4s-2.4-2.1-3.2-3.7c-0.8-1.5-1.2-3.2-1.2-5.1V62.4c0-1.8,0.4-3.5,1.2-5.1
			c0.8-1.6,1.8-2.8,3.2-3.7c1.4-0.9,2.8-1.4,4.4-1.4h26.6c1.6,0,3.1,0.5,4.4,1.4c1.3,0.9,2.4,2.2,3.2,3.7c0.8,1.6,1.2,3.2,1.2,5.1
			v4.3h-9v-3.8c0-0.1,0-0.2-0.1-0.3c-0.1-0.1-0.2-0.1-0.2-0.1h-25.8c-0.1,0-0.2,0-0.2,0.1c-0.1,0.1-0.1,0.2-0.1,0.3v9.2
			c0,0.1,0,0.2,0.1,0.2c0.1,0.1,0.1,0.1,0.2,0.1h26.2c1.6,0,3.1,0.5,4.4,1.4c1.3,0.9,2.4,2.1,3.2,3.7c0.8,1.5,1.2,3.2,1.2,5.1v10.2
			c0,1.8-0.4,3.5-1.2,5.1c-0.8,1.6-1.9,2.8-3.2,3.7c-1.3,0.9-2.8,1.4-4.4,1.4H410.3z"/><path class="st0" d="M475.4,103V84L455,52.2h10.5L479.8,73l14.3-20.7h10.6l-20.5,31.9V103H475.4z"/><path class="st0" d="M522.9,103c-1.6,0-3.1-0.5-4.4-1.4c-1.4-0.9-2.4-2.2-3.2-3.7c-0.8-1.6-1.2-3.2-1.2-5.1v-4.3h8.9v3.8
			c0,0.1,0,0.2,0.1,0.3c0.1,0.1,0.1,0.1,0.2,0.1h25.8c0.1,0,0.2,0,0.2-0.1c0.1-0.1,0.1-0.2,0.1-0.3v-9.2c0-0.1,0-0.2-0.1-0.2
			c-0.1-0.1-0.2-0.1-0.2-0.1h-26.1c-1.6,0-3.1-0.5-4.4-1.4s-2.4-2.1-3.2-3.7c-0.8-1.5-1.2-3.2-1.2-5.1V62.4c0-1.8,0.4-3.5,1.2-5.1
			c0.8-1.6,1.8-2.8,3.2-3.7c1.4-0.9,2.8-1.4,4.4-1.4h26.6c1.6,0,3.1,0.5,4.4,1.4c1.3,0.9,2.4,2.2,3.2,3.7c0.8,1.6,1.2,3.2,1.2,5.1
			v4.3h-9v-3.8c0-0.1,0-0.2-0.1-0.3c-0.1-0.1-0.2-0.1-0.2-0.1h-25.8c-0.1,0-0.2,0-0.2,0.1c-0.1,0.1-0.1,0.2-0.1,0.3v9.2
			c0,0.1,0,0.2,0.1,0.2c0.1,0.1,0.1,0.1,0.2,0.1h26.2c1.6,0,3.1,0.5,4.4,1.4c1.3,0.9,2.4,2.1,3.2,3.7c0.8,1.5,1.2,3.2,1.2,5.1v10.2
			c0,1.8-0.4,3.5-1.2,5.1c-0.8,1.6-1.9,2.8-3.2,3.7c-1.3,0.9-2.8,1.4-4.4,1.4H522.9z"/></g></g><g><g><path class="st0" d="M188.1,139.6c-0.5,0-1-0.1-1.4-0.4c-0.4-0.3-0.8-0.7-1-1.1c-0.2-0.5-0.4-1-0.4-1.6v-0.7h1.9v0.7
			c0,0.3,0.1,0.5,0.3,0.7s0.4,0.3,0.6,0.3h11c0.2,0,0.5-0.1,0.6-0.3c0.2-0.2,0.3-0.4,0.3-0.7v-4.2c0-0.3-0.1-0.5-0.3-0.7
			c-0.2-0.2-0.4-0.3-0.6-0.3h-11c-0.5,0-1-0.1-1.4-0.4c-0.4-0.3-0.8-0.7-1-1.1c-0.2-0.5-0.4-1-0.4-1.6v-4.2c0-0.6,0.1-1.1,0.4-1.6
			c0.2-0.5,0.6-0.9,1-1.1c0.4-0.3,0.9-0.4,1.4-0.4h11c0.5,0,1,0.1,1.4,0.4c0.4,0.3,0.8,0.7,1,1.1c0.2,0.5,0.4,1,0.4,1.6v0.7H200
			v-0.7c0-0.3-0.1-0.5-0.3-0.7c-0.2-0.2-0.4-0.3-0.6-0.3h-11c-0.2,0-0.5,0.1-0.6,0.3s-0.3,0.4-0.3,0.7v4.2c0,0.3,0.1,0.5,0.3,0.7
			c0.2,0.2,0.4,0.3,0.6,0.3h11c0.5,0,1,0.1,1.4,0.4c0.4,0.3,0.8,0.7,1,1.1c0.2,0.5,0.4,1,0.4,1.6v4.2c0,0.6-0.1,1.1-0.4,1.6
			c-0.2,0.5-0.6,0.9-1,1.1c-0.4,0.3-0.9,0.4-1.4,0.4H188.1z"/><path class="st0" d="M232.1,139.6c-0.5,0-1-0.1-1.4-0.4c-0.4-0.3-0.8-0.7-1-1.1c-0.2-0.5-0.4-1-0.4-1.6v-12.6
			c0-0.6,0.1-1.1,0.4-1.6c0.2-0.5,0.6-0.9,1-1.1c0.4-0.3,0.9-0.4,1.4-0.4h11c0.5,0,1,0.1,1.4,0.4c0.4,0.3,0.8,0.7,1,1.1
			c0.2,0.5,0.4,1,0.4,1.6v12.6c0,0.6-0.1,1.1-0.4,1.6c-0.2,0.5-0.6,0.9-1,1.1c-0.4,0.3-0.9,0.4-1.4,0.4H232.1z M232.1,137.5h11
			c0.2,0,0.5-0.1,0.6-0.3s0.3-0.4,0.3-0.7v-12.6c0-0.3-0.1-0.5-0.3-0.7s-0.4-0.3-0.6-0.3h-11c-0.2,0-0.5,0.1-0.6,0.3
			c-0.2,0.2-0.3,0.4-0.3,0.7v12.6c0,0.3,0.1,0.5,0.3,0.7C231.7,137.4,231.9,137.5,232.1,137.5z"/><path class="st0" d="M273.5,139.6v-18.9h15v2.1h-13.2v6.2H286v2.2h-10.6v8.4H273.5z"/><path class="st0" d="M321.7,139.6v-16.8h-7.3v-2.1h16.5v2.1h-7.3v16.8H321.7z"/><path class="st0" d="M363.2,139.6l-6-18.9h2l4.8,15.2l4.8-15.2h2.2l4.8,15.2l4.8-15.2h2l-6,18.9H375l-5.1-16.1l-5.1,16.1H363.2z"/><path class="st0" d="M409.8,123.9c0-0.6,0.1-1.1,0.4-1.6c0.2-0.5,0.6-0.9,1-1.1c0.4-0.3,0.9-0.4,1.4-0.4h11c0.5,0,1,0.1,1.4,0.4
			c0.4,0.3,0.8,0.7,1,1.1c0.2,0.5,0.4,1,0.4,1.6v15.7h-1.9v-6.9h-12.8v6.9h-1.9V123.9z M424.4,130.6v-6.7c0-0.3-0.1-0.5-0.3-0.7
			c-0.2-0.2-0.4-0.3-0.6-0.3h-11c-0.2,0-0.5,0.1-0.6,0.3c-0.2,0.2-0.3,0.4-0.3,0.7v6.7H424.4z"/><path class="st0" d="M454,139.6v-18.9h13.7c0.5,0,1,0.1,1.4,0.4c0.4,0.3,0.8,0.7,1,1.1c0.2,0.5,0.4,1,0.4,1.6v5.5
			c0,0.6-0.1,1.1-0.4,1.6s-0.6,0.9-1,1.1c-0.4,0.3-0.9,0.4-1.4,0.4h-11.9v7H454z M456.8,130.5h11c0.2,0,0.5-0.1,0.6-0.3
			c0.2-0.2,0.3-0.4,0.3-0.7v-5.5c0-0.3-0.1-0.5-0.3-0.7c-0.2-0.2-0.4-0.3-0.6-0.3h-11c-0.2,0-0.5,0.1-0.6,0.3s-0.3,0.4-0.3,0.7v5.5
			c0,0.3,0.1,0.5,0.3,0.7C456.3,130.4,456.5,130.5,456.8,130.5z M467.9,139.6l-5.4-7.3h2.4l5.4,7.3v0H467.9z"/><path class="st0" d="M498.1,139.6v-18.9h15v2.1h-13.2v6.2h10.6v2.2h-10.6v6.2h13.2v2.1H498.1z"/><path class="st0" d="M543.3,139.6c-0.5,0-1-0.1-1.4-0.4c-0.4-0.3-0.8-0.7-1-1.1c-0.2-0.5-0.4-1-0.4-1.6v-0.7h1.9v0.7
			c0,0.3,0.1,0.5,0.3,0.7c0.2,0.2,0.4,0.3,0.6,0.3h11c0.2,0,0.5-0.1,0.6-0.3c0.2-0.2,0.3-0.4,0.3-0.7v-4.2c0-0.3-0.1-0.5-0.3-0.7
			c-0.2-0.2-0.4-0.3-0.6-0.3h-11c-0.5,0-1-0.1-1.4-0.4c-0.4-0.3-0.8-0.7-1-1.1c-0.2-0.5-0.4-1-0.4-1.6v-4.2c0-0.6,0.1-1.1,0.4-1.6
			c0.2-0.5,0.6-0.9,1-1.1c0.4-0.3,0.9-0.4,1.4-0.4h11c0.5,0,1,0.1,1.4,0.4c0.4,0.3,0.8,0.7,1,1.1c0.2,0.5,0.4,1,0.4,1.6v0.7h-1.9
			v-0.7c0-0.3-0.1-0.5-0.3-0.7c-0.2-0.2-0.4-0.3-0.6-0.3h-11c-0.2,0-0.5,0.1-0.6,0.3c-0.2,0.2-0.3,0.4-0.3,0.7v4.2
			c0,0.3,0.1,0.5,0.3,0.7c0.2,0.2,0.4,0.3,0.6,0.3h11c0.5,0,1,0.1,1.4,0.4c0.4,0.3,0.8,0.7,1,1.1c0.2,0.5,0.4,1,0.4,1.6v4.2
			c0,0.6-0.1,1.1-0.4,1.6c-0.2,0.5-0.6,0.9-1,1.1c-0.4,0.3-0.9,0.4-1.4,0.4H543.3z"/></g></g></svg>