<svg version="1.2" xmlns="http://www.w3.org/2000/svg" viewBox="0 0 1231 347" width="1231" height="347">
	<title>shaped</title>
	<defs>
		<clipPath clipPathUnits="userSpaceOnUse" id="cp1">
			<path d="m0 0h1231v347h-1231z"/>
		</clipPath>
	</defs>
	<style>
		.s0 { fill: #f0f0eb } 
	</style>
	<filter id="f0">
		<feFlood flood-color="#efefed" flood-opacity="1" />
		<feBlend mode="normal" in2="SourceGraphic"/>
		<feComposite in2="SourceAlpha" operator="in" />
	</filter>
	<g id="Clip-Path" clip-path="url(#cp1)" filter="url(#f0)">
		<g>
			<path class="s0" d="m307.9 273.5v-49.8c0-2.9 3.8-3.9 5.2-1.5l25.7 41.7c1.8 3.2 2.6 4.3 6.1 5.2 7.3 1.5 13.1 2 20.7 2 30.1 0 49-15.1 49-37.6 0-20.4-14.3-29.7-35.9-38.8l-24.4-10.1c-23.1-9.7-45.2-26-45.2-56.9 0-36.4 30.9-58.6 74.6-58.6 15.7 0 31.5 1.5 47.8 5.5v46.6c0 2.8-3.6 3.9-5.2 1.5l-24.2-36.7c-1.8-2.9-3.5-4.1-6.2-4.4-3.8-0.5-7.8-0.8-12.5-0.8-28.9 0-44.9 16.3-44.9 37 0 15.7 9.3 26.8 30.6 35.9l26.8 11c27.1 11.4 49.3 23.9 49.3 55.4 0 37.1-29.2 62.7-79 62.7-19.2 0-39.9-2.9-58.3-9.3z"/>
			<path class="s0" d="m541.3 151c-14.5 0-26.2 9.7-34.1 24.5v80.2c0 3.2 0.6 4.1 2.9 5.8l14.6 11.9c2.1 1.7 0.9 5-1.8 5h-61.7c-2.7 0-3.9-3.3-1.9-5l14.4-11.9c2.6-1.7 3.2-2.6 3.2-5.8v-162.1c0-2.9-0.3-4.1-2.6-6.1l-12.8-11.1c-1.8-1.5-1.1-4.3 1.1-4.9l44.6-11.7v99.7c11.1-17.2 23.9-27.4 45.5-27.4 30.1 0 47.8 19.5 47.8 59.7 0 18.4-0.5 43.8-0.8 63.9 0 3.2 0.5 4.1 3.2 5.8l14.3 11.9c2.1 1.7 0.9 5-1.8 5h-61.8c-2.7 0-3.9-3.3-1.8-5l14.3-11.9c2.9-2 3.2-2.6 3.2-5.8 0.3-9.1 0.3-45.8 0.3-60.4 0-34.7-12.8-44.3-28.2-44.3z"/>
			<path class="s0" d="m713.9 200.9c0-9.9 0.2-19 0.2-22.8 0-23-10.5-34.7-30.6-34.7-2.9 0-5.2 0.3-6.7 0.6-2 0.3-3.8 1.2-4.9 3.5l-19.3 29.2c-1.4 2.1-4.5 1.6-5.1-0.8l-9.5-33.9c16.7-7 31.8-9.9 48.7-9.9 40.9 0 56.3 18.3 56.3 50.4 0 23.1-1.5 47.3-1.5 65.6 0 10.2 4.1 15.8 10.3 15.8 1.8 0 3.6-0.5 5.2-1.3 2.4-1.1 4.8 1.3 3.8 3.7-2.9 6.9-9.2 15.3-22.7 15.3-14.6 0-24.2-9.6-25.1-25-8.7 15.4-26.3 27.3-49.2 24.7-19.1-2.2-34.1-18.3-33.9-37.6 0.4-26.8 24.5-45.7 59.5-45.7 7.9 0 16.9 1.1 24.5 2.9zm-0.9 39.6c0.3-8.1 0.6-18.6 0.6-29.1-5.6-1.2-11.4-1.8-15.8-1.8-22.7 0-37.3 12.9-37.3 30.9 0 15.2 10.2 23.4 22.5 23.4 12.2 0 23.9-7.9 30-23.4z"/>
			<path class="s0" d="m770.4 346.9c-2.7 0-3.9-3.3-1.8-5l14.5-11.9c2.3-1.7 2.9-2.6 2.9-5.8v-159.5c0-2.9-0.3-3.8-2.3-5.8l-17-18.6c-1.6-1.8-0.3-4.7 2.1-4.7h44.6v25.6c10.8-21.2 27.7-29.1 46.1-29.1 31.8 0 57.7 25.3 57.7 70.8 0 51.3-32.4 79-65.6 79-14.9 0-27.4-5.5-35-13.7v53.1c0 4.1 0.6 4.9 3.8 6.4l23.7 14c2.5 1.4 1.5 5.2-1.4 5.2h-72.4zm113.7-141.6c0-33.6-14.6-55.4-36.2-55.4-11.6 0-23.3 6.4-31.2 22.7v80.5c6.4 9.9 15.8 15.1 27.1 15.1 20.4 0 40.3-18.3 40.3-62.9z"/>
			<path class="s0" d="m969.1 203.5c0.3 44 23.9 57.7 46.4 57.7 12.1 0 25.4-3.8 36.8-13 2.3-1.9 5.5 0.6 4.4 3.3-5.2 12.1-18.6 30.4-52.6 30.4-37 0-66.8-24.2-66.8-73.4 0-49.3 30.3-76.4 65.9-76.4 32.1 0 57.2 17.5 57.2 64.4v7h-91.3zm0-11.7h60.9c-1.1-30.6-9.9-47.5-28.2-47.5-18.4 0-30.9 16.1-32.7 47.5z"/>
			<path class="s0" d="m1184.5 278.4v-25c-8.4 17.7-25 28.5-44.9 28.5-30.3 0-59.4-25.3-59.4-72.8 0-50.2 32.6-77 67-77 12.5 0 24.5 3.8 34.1 11.6v-50.1c0-2.9 0-4.1-2.3-6.1l-13.4-14.3c-1.6-1.7-0.7-4.3 1.5-4.8l44.8-8.6v190.4c0 2.9 0.3 3.5 2.9 6.1l15 17.5c1.6 1.8 0.3 4.6-2.2 4.6zm-3.2-36.4v-83.4c-6.1-7.6-17.5-12.5-27.7-12.5-18.9 0-40.2 16.6-40.2 60 0 39.1 16.9 57.5 36.4 57.5 11.7 0 25.1-6.7 31.5-21.6z"/>
			<path class="s0" d="m229.6 74.4c2.7-0.2 3.4-3.2 1.1-4.3l-51.7-22-55.9-23.7-54.3-23.2c-1-0.3-2.1-0.3-2.9 0.2-22 13.4-30.9 30.1-30.7 47.9q0 1.4 0.1 3 0 0.1 0 0.2c1.3 16.2 11.5 43.8 21.7 63.5 0.4 0.9 0.6 1.8 0.3 2.8-4.4 15-15.5 32-28.4 41.5-1.4 1-1.2 2.9 0.5 3.6l49.2 21c1.8 0.8 2 2.8 0.3 3.8-18.8 10.6-52 18.9-75.4 20.8-2.7 0.2-3.4 3.2-1.1 4.2l51.7 22 55.9 23.8 54.3 23.1c1 0.4 2.1 0.3 2.9-0.2 22-13.4 30.9-30.1 30.7-47.8q0-1.5-0.1-3 0-0.1 0-0.2c-1.3-16.2-11.5-43.8-21.7-63.6-0.4-0.8-0.5-1.8-0.3-2.7 4.4-15 15.5-32 28.4-41.5 1.4-1.1 1.2-2.9-0.5-3.7l-49.2-20.9c-1.8-0.8-2-2.9-0.3-3.9 18.8-10.6 52-18.8 75.4-20.7zm-119-46.8c2.5-0.3 4.1 2.3 2.1 3.8-13.8 11-20.2 23.5-21.5 37.1-0.1 1.6-2.2 2.6-3.9 1.9l-44.4-18.9c-1.8-0.8-2-2.9-0.3-3.9 16.9-9.5 45.4-17.2 67.9-20zm-46.4 90c3.7-13 12.5-27.5 23.2-37.3 1.5-1.4 4.3-0.7 4.6 1.2 3.1 16.4 11.9 40.5 20.9 58.3 0.5 0.9 0.6 1.8 0.3 2.7-3.7 13-12.5 27.4-23.1 37.2-1.6 1.4-4.4 0.8-4.7-1.1-3-16.4-11.8-40.5-20.9-58.3-0.4-0.9-0.5-1.8-0.3-2.7zm25.8 72.1l44.6 19c1.8 0.7 1.9 2.8 0.2 3.8-16.8 9.6-45.4 17.2-68 20-2.6 0.3-4.1-2.4-2.2-3.9 13.9-10.9 20.3-23.5 21.5-37.1 0.1-1.6 2.2-2.5 4-1.8h-0.1zm32.6 66.5c-2.6 0.4-4.1-2.3-2.1-3.8 13.8-10.9 20.2-23.5 21.4-37.1 0.2-1.6 2.3-2.5 4-1.8l44.4 18.9c1.8 0.8 2 2.9 0.3 3.8-16.9 9.6-45.4 17.2-67.9 20h-0.1zm46.5-89.9c-3.8 12.9-12.5 27.4-23.2 37.2-1.5 1.4-4.3 0.7-4.7-1.1-3-16.5-11.8-40.5-20.9-58.3-0.4-0.9-0.5-1.8-0.3-2.8 3.8-12.9 12.5-27.4 23.2-37.2 1.5-1.4 4.3-0.7 4.7 1.1 3 16.5 11.8 40.6 20.9 58.3 0.4 0.9 0.5 1.9 0.3 2.8zm-25.8-72.1l-44.6-19c-1.8-0.7-1.9-2.8-0.2-3.8 16.8-9.6 45.4-17.2 68-20 2.6-0.3 4.1 2.4 2.2 3.9-13.9 10.9-20.3 23.5-21.5 37.1-0.2 1.6-2.3 2.5-4 1.8h0.1z"/>
		</g>
	</g>
</svg>