<svg xmlns="http://www.w3.org/2000/svg" width="123" height="24" version="1.2"><defs><linearGradient id="g1" x2="1" gradientTransform="matrix(10.945 0 0 6.02 3.263 3.577)" gradientUnits="userSpaceOnUse"><stop offset="0" stop-color="#212e60"/><stop offset="1" stop-color="#412a70"/></linearGradient><linearGradient id="g2" x2="1" gradientTransform="matrix(28.898 0 0 14.292 5.549 7.145)" gradientUnits="userSpaceOnUse"><stop offset="0" stop-color="#21ff91"/><stop offset="1" stop-color="#14da78"/></linearGradient><linearGradient id="g3" x2="1" gradientTransform="matrix(.416 .476 -2.269 1.984 28.107 23.309)" gradientUnits="userSpaceOnUse"><stop offset="0" stop-color="#212e60"/><stop offset="1" stop-color="#412a70"/></linearGradient><linearGradient id="g4" x2="1" gradientTransform="matrix(24.021 27.478 -21.96 19.197 16.61 7.214)" gradientUnits="userSpaceOnUse"><stop offset="0" stop-color="#212e60"/><stop offset="1" stop-color="#412a70"/></linearGradient><linearGradient id="g5" x2="1" gradientTransform="matrix(28.894 0 0 14.29 -.001 16.855)" gradientUnits="userSpaceOnUse"><stop offset="0" stop-color="#7c5cd1"/><stop offset=".78" stop-color="#7221c2"/></linearGradient><linearGradient id="g6" x2="1" gradientTransform="matrix(.004 .004 -.045 .045 28.854 23.121)" gradientUnits="userSpaceOnUse"><stop offset="0" stop-color="#7c5cd1"/><stop offset=".78" stop-color="#7221c2"/></linearGradient><clipPath id="cp1" clipPathUnits="userSpaceOnUse"><path d="M0 0h122.78v24H0z"/></clipPath></defs><style>.s0{fill:#6c38da}.s1{fill:#212e60}.s2{fill:#70d7bd}</style><filter id="f0"><feFlood flood-color="#1e2939" flood-opacity="1"/><feBlend in2="SourceGraphic"/><feComposite in2="SourceAlpha" operator="in"/></filter><g id="Clip-Path" clip-path="url(#cp1)" filter="url(#f0)"><path d="m39.4 15.8 6-7.4h-6V6.6H48v1.5l-5.9 7.5h6v1.8h-8.7zM51.6 16.9q-1.3-.7-2.1-2-.7-1.3-.7-2.9t.7-2.9q.8-1.3 2.1-2 1.3-.8 2.9-.8 1.5 0 2.8.8 1.3.7 2.1 2 .7 1.3.7 2.9t-.7 2.9q-.8 1.3-2.1 2-1.3.8-2.8.8-1.6 0-2.9-.8m-.3-2.9q.5.8 1.3 1.3t1.9.5q1 0 1.8-.5t1.3-1.3q.5-.9.5-2t-.5-2-1.3-1.4-1.8-.5-1.9.5-1.3 1.4q-.5.9-.5 2t.5 2M63.9 16.9q-1.3-.7-2-2-.8-1.3-.8-2.9t.7-2.9q.8-1.3 2.1-2 1.3-.8 2.9-.8t2.8.8q1.3.7 2.1 2 .7 1.3.7 2.9t-.7 2.9q-.8 1.3-2.1 2-1.3.8-2.8.8-1.6 0-2.9-.8m-.3-2.9q.5.8 1.3 1.3.9.5 1.9.5t1.8-.5 1.3-1.3q.5-.9.5-2t-.5-2-1.3-1.4-1.8-.5-1.9.5q-.8.5-1.3 1.4t-.5 2 .5 2M74 6.6h1.9v1.5q.6-.9 1.6-1.3 1-.5 2.2-.5 1.5 0 2.8.8 1.2.7 1.9 2 .8 1.3.8 2.9t-.8 2.9q-.7 1.3-1.9 2-1.3.8-2.8.8-1.2 0-2.2-.5-1-.4-1.6-1.3v5.6H74zm2.4 7.4q.5.8 1.3 1.3.8.6 1.8.6 1.1 0 1.9-.6.8-.5 1.3-1.3.4-.9.4-2t-.4-2q-.5-.9-1.3-1.4t-1.9-.5q-1 0-1.8.5T76.4 10t-.5 2 .5 2" class="s0"/><path d="M88.3 16.9q-1.3-.8-1.8-2.1L88 14q.5 1 1.3 1.5.8.6 1.8.6c.6 0 1.1-.2 1.5-.5q.6-.4.6-1.1t-.5-1.1q-.6-.4-1.2-.5l-1.6-.2q-1.5-.3-2.2-1.2-.8-.8-.8-2 0-.9.5-1.7.5-.7 1.4-1.1t2-.4q1.4 0 2.6.7 1.1.7 1.6 2l-1.5.7q-.4-.8-1.2-1.3-.7-.4-1.6-.4c-.5 0-1 .1-1.3.4q-.5.4-.5 1 0 .7.5 1.1.4.4 1 .5l1.8.2q1.4.4 2.2 1.2.7.9.7 2.1 0 .9-.5 1.6t-1.4 1.1q-.9.5-2.1.5-1.6 0-2.8-.8M96.7 5.1q-.3-.4-.3-.9t.3-.9q.4-.3 1-.3.5 0 .9.3.3.4.3.9t-.3.9q-.4.4-.9.4-.6 0-1-.4m0 1.5h1.9v10.8h-1.9zM103.3 21.1q-1.3-.8-1.9-2.1l1.8-.8q.3.8 1.1 1.3.9.5 2 .5 1.5 0 2.4-.8 1-.8 1-2.2v-1.6q-.6.9-1.6 1.3-.9.5-2 .5-1.6 0-2.8-.8-1.2-.7-1.9-1.9-.7-1.3-.7-2.8t.7-2.7q.7-1.3 1.9-2t2.7-.7q1.2 0 2.1.5 1 .4 1.7 1.3V6.5h1.8V17q0 1.4-.6 2.5-.7 1.1-1.9 1.7-1.2.7-2.7.7-1.8 0-3.1-.8m-.2-7.6q.5.9 1.3 1.4.8.4 1.8.4c.7 0 1.2-.1 1.8-.4q.8-.5 1.2-1.4.5-.8.5-1.8t-.5-1.8q-.4-.8-1.2-1.3t-1.8-.5c-.6 0-1.3.2-1.8.5q-.8.5-1.3 1.3-.4.8-.4 1.8t.4 1.8M113.7 6.6h4.6q2.1 0 3.3 1.1t1.2 3.1v6.6h-1.9v-6.5q0-1.2-.7-1.9-.7-.6-1.9-.6h-2.7v9h-1.9z" class="s1"/><path d="M7.9 0h-.2z" class="s2"/><path d="M14.2 6.6c-3.6-.1-6.3 0-9.9 0h-.5c-.4 0-.6-.5-.5-1C3.6 4.3 4.4 2.1 5.5.9Q6.2.6 6.8.6c.5 0 .9.1 1.3.2q.7.3 1.3.9z" style="fill:url(#g1)"/><path d="M33.9 14.3H22.7q-.5 0-1-.2-.4-.2-.7-.5l-3.1-3.2-.1-.1-3.6-3.7-4.8-4.9q-.6-.6-1.3-.9Q7.5.6 6.8.6q-.6 0-1.3.3h.1c.2-.2.7-.6 1.6-.8q.3-.1.6-.1H20q.4 0 .8.1c.4 0 .7.2 1 .5L34 13.1l.3.3c.3.3.1.9-.4.9" style="fill:url(#g2)"/><path d="M26.7 24h-.2z" class="s2"/><path d="M27.9 23.7q.5-.2.7-.4c-.1.1-.4.3-.7.4" style="fill:url(#g3)"/><path d="M31.1 18.4c-.3 1.3-1 3.5-2.2 4.7q-.6.3-1.3.3c-.4 0-.9-.1-1.3-.2q-.7-.3-1.3-.9l-4.8-4.9c3.6.1 6.3 0 9.9 0h.5c.4 0 .7.5.5 1" style="fill:url(#g4)"/><path d="M28.9 23.1h-.1q0 .1-.2.2-.2.2-.7.4-.3.1-.7.2-.2.1-.5.1H14.4q-.4 0-.7-.1c-.4 0-.8-.2-1-.5L.4 10.9l-.2-.3c-.4-.3-.1-.9.3-.9h11.2q.5 0 1 .2.4.2.7.5l3.1 3.2.1.1 3.6 3.7 4.8 4.9q.6.6 1.3.9.6.2 1.3.2t1.3-.3" style="fill:url(#g5)"/><path d="M28.9 23.1h-.1z" style="fill:url(#g6)"/></g></svg>