<svg width="123" height="24" viewBox="0 0 123 24" fill="none" xmlns="http://www.w3.org/2000/svg">
<g clip-path="url(#clip0_34891_6636)">
<path d="M39.4476 15.83L45.4476 8.35033H39.4476V6.55762H48.0166V8.14875L42.0767 15.6284H48.0552V17.4211H39.4434V15.83H39.4476Z" fill="#6C38DA"/>
<path d="M51.5978 16.9315C50.7358 16.4426 50.0496 15.7607 49.5478 14.8943C49.046 14.028 48.793 13.0587 48.793 11.9823C48.793 10.9058 49.0417 9.95796 49.5392 9.08734C50.0367 8.22101 50.7143 7.54338 51.5807 7.05017C52.4427 6.56125 53.4077 6.3125 54.467 6.3125C55.5264 6.3125 56.4699 6.55696 57.3319 7.05017C58.194 7.53909 58.8759 8.21672 59.3734 9.07447C59.8709 9.93652 60.1196 10.9015 60.1196 11.978C60.1196 13.0545 59.8666 14.0409 59.3648 14.9029C58.863 15.765 58.1768 16.4383 57.3148 16.9272C56.4527 17.4161 55.5006 17.6649 54.467 17.6649C53.4334 17.6649 52.4642 17.4204 51.6021 16.9272L51.5978 16.9315ZM51.2676 13.9551C51.5893 14.547 52.031 15.0101 52.5928 15.3447C53.1589 15.6792 53.7808 15.8465 54.4584 15.8465C55.1361 15.8465 55.7365 15.6792 56.294 15.3447C56.8516 15.0101 57.289 14.547 57.6107 13.9551C57.9324 13.3633 58.091 12.7071 58.091 11.978C58.091 11.2489 57.9324 10.597 57.6107 10.0137C57.289 9.43044 56.8516 8.96725 56.294 8.63273C55.7365 8.2982 55.1232 8.12665 54.4584 8.12665C53.7937 8.12665 53.1547 8.29391 52.5928 8.63273C52.0267 8.96725 51.585 9.43044 51.2676 10.0137C50.9459 10.597 50.7873 11.2532 50.7873 11.978C50.7873 12.7028 50.9459 13.3633 51.2676 13.9551Z" fill="#6C38DA"/>
<path d="M63.9025 16.9315C63.0405 16.4426 62.3543 15.7607 61.8525 14.8943C61.3507 14.028 61.0977 13.0587 61.0977 11.9823C61.0977 10.9058 61.3464 9.95796 61.8439 9.08734C62.3414 8.22101 63.019 7.54338 63.8854 7.05017C64.7474 6.56125 65.7124 6.3125 66.7717 6.3125C67.831 6.3125 68.7746 6.55696 69.6366 7.05017C70.4987 7.53909 71.1806 8.21672 71.6781 9.07447C72.1756 9.93652 72.4243 10.9015 72.4243 11.978C72.4243 13.0545 72.1713 14.0409 71.6695 14.9029C71.1677 15.765 70.4815 16.4383 69.6195 16.9272C68.7574 17.4161 67.8053 17.6649 66.7717 17.6649C65.7381 17.6649 64.7688 17.4204 63.9068 16.9272L63.9025 16.9315ZM63.5766 13.9551C63.8982 14.547 64.34 15.0101 64.9018 15.3447C65.4679 15.6792 66.0898 15.8465 66.7674 15.8465C67.445 15.8465 68.0455 15.6792 68.603 15.3447C69.1606 15.0101 69.598 14.547 69.9197 13.9551C70.2413 13.3633 70.4 12.7071 70.4 11.978C70.4 11.2489 70.2413 10.597 69.9197 10.0137C69.598 9.43044 69.1606 8.96725 68.603 8.63273C68.0455 8.2982 67.4322 8.12665 66.7674 8.12665C66.1027 8.12665 65.4636 8.29391 64.9018 8.63273C64.3357 8.96725 63.8939 9.43044 63.5766 10.0137C63.2549 10.597 63.0962 11.2532 63.0962 11.978C63.0962 12.7028 63.2549 13.3633 63.5766 13.9551Z" fill="#6C38DA"/>
<path d="M73.9941 6.55755H75.8512V8.07149C76.2886 7.52253 76.8333 7.08936 77.4938 6.78057C78.1543 6.47178 78.8919 6.31738 79.7068 6.31738C80.7275 6.31738 81.6539 6.56613 82.4816 7.06363C83.3094 7.56113 83.9655 8.24304 84.4416 9.10938C84.9177 9.97571 85.1535 10.9407 85.1535 12C85.1535 13.0593 84.9177 14.0243 84.4416 14.8821C83.9655 15.7441 83.3137 16.4217 82.4816 16.9192C81.6539 17.4167 80.7189 17.6655 79.6853 17.6655C78.8962 17.6655 78.1714 17.5154 77.5109 17.2109C76.8505 16.9107 76.3101 16.4732 75.8898 15.9114V21.4568H73.9941V6.55755ZM76.3701 13.9686C76.6918 14.5518 77.1292 15.015 77.6868 15.3495C78.2443 15.6841 78.8619 15.8513 79.5438 15.8513C80.2257 15.8513 80.839 15.6841 81.3923 15.3495C81.9412 15.015 82.3701 14.5518 82.6789 13.9686C82.9834 13.3853 83.1378 12.7291 83.1378 12.0043C83.1378 11.2795 82.9834 10.619 82.6703 10.0272C82.3573 9.43532 81.9284 8.97214 81.3837 8.63761C80.839 8.30309 80.2257 8.13154 79.5481 8.13154C78.8705 8.13154 78.2486 8.2988 77.6911 8.63761C77.1335 8.97214 76.6961 9.43532 76.3744 10.0272C76.0528 10.619 75.8941 11.2752 75.8941 12.0043C75.8941 12.7334 76.0528 13.3853 76.3744 13.9686H76.3701Z" fill="#6C38DA"/>
<path d="M88.2658 16.8892C87.451 16.3703 86.8634 15.6712 86.5117 14.7834L88.0428 14.0157C88.3559 14.6462 88.7848 15.1437 89.3294 15.5082C89.8741 15.8728 90.466 16.0529 91.105 16.0529C91.744 16.0529 92.2201 15.9114 92.6146 15.6283C93.0092 15.3453 93.2065 14.9764 93.2065 14.5175C93.2065 14.0586 93.0307 13.7155 92.6747 13.441C92.3187 13.1666 91.9413 12.9993 91.5339 12.9478L89.8827 12.7248C88.9049 12.4846 88.1672 12.0815 87.6783 11.5154C87.1893 10.9493 86.9449 10.2845 86.9449 9.5211C86.9449 8.89065 87.1121 8.33311 87.4467 7.84848C87.7812 7.36384 88.2401 6.99072 88.8362 6.72053C89.4281 6.45034 90.0843 6.31738 90.8048 6.31738C91.7569 6.31738 92.6104 6.55327 93.3652 7.02503C94.12 7.4968 94.6604 8.14869 94.9863 8.98071L93.4767 9.7484C93.2065 9.19944 92.8291 8.76199 92.3445 8.43604C91.8598 8.11438 91.328 7.95141 90.7447 7.95141C90.1615 7.95141 89.7369 8.08436 89.3981 8.35455C89.0593 8.62475 88.8877 8.97214 88.8877 9.40101C88.8877 9.82989 89.0464 10.1987 89.368 10.4603C89.6897 10.722 90.0371 10.8892 90.4188 10.9536L92.2329 11.1937C93.1422 11.4339 93.8541 11.8499 94.3645 12.4332C94.8748 13.0165 95.1279 13.6941 95.1279 14.4575C95.1279 15.0751 94.9563 15.6283 94.6175 16.1087C94.2787 16.5933 93.8026 16.9707 93.1893 17.2495C92.576 17.5282 91.877 17.6612 91.0878 17.6612C90.0285 17.6612 89.0893 17.4039 88.2701 16.8849L88.2658 16.8892Z" fill="#212E60"/>
<path d="M96.7419 5.10766C96.4974 4.85891 96.373 4.5587 96.373 4.21131C96.373 3.86392 96.4974 3.56799 96.7419 3.32353C96.9863 3.07907 97.2908 2.95898 97.6597 2.95898C98.0285 2.95898 98.3116 3.07907 98.556 3.32353C98.8005 3.5637 98.9249 3.85963 98.9249 4.21131C98.9249 4.56299 98.8005 4.87607 98.556 5.11624C98.3116 5.35641 98.0114 5.48079 97.6597 5.48079C97.308 5.48079 96.9863 5.35641 96.7419 5.10766ZM96.7247 6.55727H98.6204V17.425H96.7247V6.55727Z" fill="#212E60"/>
<path d="M103.304 21.0834C102.424 20.5645 101.803 19.8783 101.438 19.0162L103.214 18.21C103.419 18.746 103.793 19.1878 104.337 19.5309C104.882 19.874 105.547 20.0456 106.336 20.0456C107.301 20.0456 108.103 19.7754 108.742 19.2307C109.381 18.686 109.702 17.9312 109.702 16.9619V15.448C109.295 15.9969 108.772 16.4215 108.133 16.7175C107.494 17.0134 106.799 17.1592 106.053 17.1592C105.032 17.1592 104.114 16.919 103.299 16.443C102.484 15.9669 101.841 15.315 101.369 14.4873C100.902 13.6596 100.666 12.7418 100.666 11.7339C100.666 10.726 100.898 9.80824 101.361 8.9805C101.824 8.15277 102.463 7.50087 103.278 7.02482C104.093 6.54876 105.011 6.30859 106.031 6.30859C106.795 6.30859 107.494 6.4587 108.133 6.7632C108.772 7.06771 109.316 7.50087 109.767 8.0627V6.54877H111.624V16.9533C111.624 17.8926 111.401 18.7332 110.951 19.4751C110.5 20.2128 109.874 20.7961 109.072 21.2207C108.27 21.6453 107.365 21.8554 106.357 21.8554C105.199 21.8554 104.183 21.5981 103.308 21.0791L103.304 21.0834ZM103.119 13.5523C103.424 14.1013 103.848 14.5388 104.393 14.8647C104.938 15.1864 105.542 15.3493 106.207 15.3493C106.872 15.3493 107.434 15.1864 107.974 14.8647C108.51 14.543 108.935 14.1056 109.239 13.5523C109.544 13.0034 109.698 12.3944 109.698 11.7382C109.698 11.082 109.544 10.473 109.239 9.92403C108.935 9.37507 108.51 8.93761 107.974 8.61167C107.438 8.29001 106.85 8.12704 106.207 8.12704C105.564 8.12704 104.938 8.29001 104.402 8.61167C103.865 8.93333 103.441 9.37078 103.128 9.92403C102.815 10.4773 102.66 11.082 102.66 11.7382C102.66 12.3944 102.815 13.0034 103.119 13.5523Z" fill="#212E60"/>
<path d="M113.66 6.55762H118.313C119.716 6.55762 120.81 6.93503 121.599 7.68557C122.388 8.44039 122.782 9.47827 122.782 10.8121V17.4254H120.865V10.855C120.865 10.0744 120.638 9.46541 120.183 9.01938C119.729 8.57763 119.103 8.35461 118.318 8.35461H115.564V17.4254H113.669V6.55762H113.66Z" fill="#212E60"/>
<path d="M7.93871 0C7.87866 0 7.81433 0 7.75429 0.00428878H7.75L7.93871 0Z" fill="#70D7BD"/>
<path d="M14.2079 6.58785C10.5924 6.52781 7.93767 6.62216 4.30937 6.55783H3.80329C3.42588 6.55783 3.16427 6.06033 3.29293 5.59285C3.6489 4.32338 4.39086 2.12323 5.54883 0.918086C5.96913 0.669337 6.40658 0.566406 6.83546 0.566406C7.26434 0.566406 7.70179 0.669337 8.10065 0.823733C8.58957 1.01673 9.03131 1.30836 9.39586 1.68149L14.2079 6.58785Z" fill="url(#paint0_linear_34891_6636)"/>
<path d="M33.9062 14.2902H22.7211C22.3823 14.2902 22.052 14.2173 21.739 14.0758C21.4773 13.96 21.25 13.7756 21.0485 13.5697L17.9305 10.3874L17.9048 10.3617L17.8276 10.2802L14.2079 6.58756L9.39586 1.6812C9.03132 1.30808 8.58957 1.01644 8.10065 0.823445C7.70179 0.669049 7.27292 0.566119 6.83546 0.566119C6.39801 0.566119 5.96913 0.669049 5.54883 0.917798C5.54883 0.909221 5.56169 0.900643 5.57456 0.887777C5.58314 0.879199 5.59172 0.874911 5.596 0.866333C5.77184 0.707648 6.3251 0.257327 7.20001 0.077198C7.37585 0.0428878 7.56027 0.0128663 7.75326 0.00428878C7.8133 0 7.87763 0 7.93768 0C7.98485 0 8.03203 0.00428878 8.0835 0.00428878H16.601L20.0192 0C20.2808 0 20.5381 0.0257327 20.7911 0.0729092C21.1686 0.145818 21.5117 0.347391 21.7819 0.621873L34.0306 13.1194L34.2879 13.381C34.6225 13.7198 34.3823 14.2902 33.9062 14.2902Z" fill="url(#paint1_linear_34891_6636)"/>
<path d="M26.6926 24.0004H26.5039C26.5639 24.0004 26.6283 24.0004 26.6883 23.9961H26.6926V24.0004Z" fill="#70D7BD"/>
<path d="M27.9102 23.7125C28.2275 23.5796 28.4763 23.4252 28.6435 23.3008C28.4763 23.4252 28.2318 23.5838 27.9102 23.7125Z" fill="url(#paint2_linear_34891_6636)"/>
<path d="M31.1493 18.4081C30.7933 19.6776 30.0514 21.882 28.8934 23.0829C28.4731 23.3316 28.0357 23.4345 27.6068 23.4345C27.1779 23.4345 26.7404 23.3316 26.3416 23.1772C25.8527 22.9885 25.4109 22.6969 25.0464 22.3194L20.2344 17.4131C23.8498 17.4731 26.5046 17.3831 30.1286 17.4431H30.639C31.0164 17.4431 31.278 17.9406 31.1493 18.4081Z" fill="url(#paint3_linear_34891_6636)"/>
<path d="M28.8929 23.0824C28.8929 23.0824 28.88 23.0995 28.8671 23.1124H28.8628C28.8628 23.1124 28.85 23.1295 28.8457 23.1338C28.7985 23.1724 28.7342 23.2325 28.6441 23.3011C28.4768 23.4255 28.2281 23.5799 27.9107 23.7128C27.7134 23.7986 27.4904 23.8715 27.2417 23.923C27.0658 23.9573 26.8857 23.9873 26.6927 23.9959C26.6327 24.0002 26.5683 24.0002 26.5083 24.0002C26.4611 24.0002 26.4139 23.9959 26.3625 23.9959H17.845L14.4268 24.0002C14.1652 24.0002 13.9079 23.9744 13.6548 23.9273C13.2774 23.8586 12.9343 23.6571 12.6641 23.3826L0.411076 10.8808L0.153749 10.6192C-0.180775 10.2804 0.0593962 9.70996 0.535451 9.70996H11.7206C12.0551 9.70996 12.3896 9.78287 12.7027 9.9244C12.9643 10.0445 13.1916 10.2246 13.3932 10.4305L16.5111 13.6127L16.5369 13.6385L16.6141 13.72L20.2338 17.4126L25.0458 22.319C25.4104 22.6964 25.8521 22.988 26.341 23.1767C26.7399 23.3311 27.1688 23.434 27.6062 23.434C28.0437 23.434 28.4726 23.3311 28.8929 23.0824Z" fill="url(#paint4_linear_34891_6636)"/>
<path d="M28.8675 23.1123C28.8675 23.1123 28.8501 23.1254 28.8457 23.1341C28.8457 23.1298 28.8588 23.121 28.8632 23.1123H28.8675Z" fill="url(#paint5_linear_34891_6636)"/>
</g>
<defs>
<linearGradient id="paint0_linear_34891_6636" x1="3.26291" y1="3.57713" x2="14.2079" y2="3.57713" gradientUnits="userSpaceOnUse">
<stop stop-color="#212E60"/>
<stop offset="1" stop-color="#412A70"/>
</linearGradient>
<linearGradient id="paint1_linear_34891_6636" x1="5.54883" y1="7.1451" x2="34.4466" y2="7.1451" gradientUnits="userSpaceOnUse">
<stop stop-color="#21FF91"/>
<stop offset="1" stop-color="#14DA78"/>
</linearGradient>
<linearGradient id="paint2_linear_34891_6636" x1="28.1074" y1="23.3094" x2="28.5235" y2="23.7854" gradientUnits="userSpaceOnUse">
<stop stop-color="#212E60"/>
<stop offset="1" stop-color="#412A70"/>
</linearGradient>
<linearGradient id="paint3_linear_34891_6636" x1="16.6104" y1="7.21437" x2="40.6318" y2="34.6926" gradientUnits="userSpaceOnUse">
<stop stop-color="#212E60"/>
<stop offset="1" stop-color="#412A70"/>
</linearGradient>
<linearGradient id="paint4_linear_34891_6636" x1="-0.00064667" y1="16.8551" x2="28.8929" y2="16.8551" gradientUnits="userSpaceOnUse">
<stop stop-color="#7C5CD1"/>
<stop offset="0.78" stop-color="#7221C2"/>
</linearGradient>
<linearGradient id="paint5_linear_34891_6636" x1="28.8544" y1="23.121" x2="28.8588" y2="23.1254" gradientUnits="userSpaceOnUse">
<stop stop-color="#7C5CD1"/>
<stop offset="0.78" stop-color="#7221C2"/>
</linearGradient>
<clipPath id="clip0_34891_6636">
<rect width="122.783" height="24" fill="white"/>
</clipPath>
</defs>
</svg>
