<svg version="1.2" xmlns="http://www.w3.org/2000/svg" viewBox="0 0 123 24" width="123" height="24">
	<title>zoopsign</title>
	<defs>
		<clipPath clipPathUnits="userSpaceOnUse" id="cp1">
			<path d="m0 0h122.78v24h-122.78z"/>
		</clipPath>
		<linearGradient id="g1" x2="1" gradientUnits="userSpaceOnUse" gradientTransform="matrix(10.945,0,0,6.02,3.263,3.577)">
			<stop offset="0" stop-color="#212e60"/>
			<stop offset="1" stop-color="#412a70"/>
		</linearGradient>
		<linearGradient id="g2" x2="1" gradientUnits="userSpaceOnUse" gradientTransform="matrix(28.898,0,0,14.292,5.549,7.145)">
			<stop offset="0" stop-color="#21ff91"/>
			<stop offset="1" stop-color="#14da78"/>
		</linearGradient>
		<linearGradient id="g3" x2="1" gradientUnits="userSpaceOnUse" gradientTransform="matrix(.416,.476,-2.269,1.984,28.107,23.309)">
			<stop offset="0" stop-color="#212e60"/>
			<stop offset="1" stop-color="#412a70"/>
		</linearGradient>
		<linearGradient id="g4" x2="1" gradientUnits="userSpaceOnUse" gradientTransform="matrix(24.021,27.478,-21.96,19.197,16.61,7.214)">
			<stop offset="0" stop-color="#212e60"/>
			<stop offset="1" stop-color="#412a70"/>
		</linearGradient>
		<linearGradient id="g5" x2="1" gradientUnits="userSpaceOnUse" gradientTransform="matrix(28.894,0,0,14.29,-0.001,16.855)">
			<stop offset="0" stop-color="#7c5cd1"/>
			<stop offset=".78" stop-color="#7221c2"/>
		</linearGradient>
		<linearGradient id="g6" x2="1" gradientUnits="userSpaceOnUse" gradientTransform="matrix(.004,.004,-0.045,.045,28.854,23.121)">
			<stop offset="0" stop-color="#7c5cd1"/>
			<stop offset=".78" stop-color="#7221c2"/>
		</linearGradient>
	</defs>
	<style>
		.s0 { fill: #6c38da } 
		.s1 { fill: #212e60 } 
		.s2 { fill: #70d7bd } 
		.s3 { fill: url(#g1) } 
		.s4 { fill: url(#g2) } 
		.s5 { fill: url(#g3) } 
		.s6 { fill: url(#g4) } 
		.s7 { fill: url(#g5) } 
		.s8 { fill: url(#g6) } 
	</style>
	<filter id="f0">
		<feFlood flood-color="#efefed" flood-opacity="1" />
		<feBlend mode="normal" in2="SourceGraphic"/>
		<feComposite in2="SourceAlpha" operator="in" />
	</filter>
	<g id="Clip-Path" clip-path="url(#cp1)" filter="url(#f0)">
		<g>
			<path class="s0" d="m39.4 15.8l6-7.4h-6v-1.8h8.6v1.5l-5.9 7.5h6v1.8h-8.7v-1.6z"/>
			<path class="s0" d="m51.6 16.9q-1.3-0.7-2.1-2-0.7-1.3-0.7-2.9 0-1.6 0.7-2.9 0.8-1.3 2.1-2 1.3-0.8 2.9-0.8 1.5 0 2.8 0.8 1.3 0.7 2.1 2 0.7 1.3 0.7 2.9 0 1.6-0.7 2.9-0.8 1.3-2.1 2-1.3 0.8-2.8 0.8-1.6 0-2.9-0.8zm-0.3-2.9q0.5 0.8 1.3 1.3 0.8 0.5 1.9 0.5 1 0 1.8-0.5 0.8-0.5 1.3-1.3 0.5-0.9 0.5-2 0-1.1-0.5-2-0.5-0.9-1.3-1.4-0.8-0.5-1.8-0.5-1 0-1.9 0.5-0.9 0.5-1.3 1.4-0.5 0.9-0.5 2 0 1.1 0.5 2z"/>
			<path class="s0" d="m63.9 16.9q-1.3-0.7-2-2-0.8-1.3-0.8-2.9 0-1.6 0.7-2.9 0.8-1.3 2.1-2 1.3-0.8 2.9-0.8 1.6 0 2.8 0.8 1.3 0.7 2.1 2 0.7 1.3 0.7 2.9 0 1.6-0.7 2.9-0.8 1.3-2.1 2-1.3 0.8-2.8 0.8-1.6 0-2.9-0.8zm-0.3-2.9q0.5 0.8 1.3 1.3 0.9 0.5 1.9 0.5 1 0 1.8-0.5 0.8-0.5 1.3-1.3 0.5-0.9 0.5-2 0-1.1-0.5-2-0.5-0.9-1.3-1.4-0.8-0.5-1.8-0.5-1 0-1.9 0.5-0.8 0.5-1.3 1.4-0.5 0.9-0.5 2 0 1.1 0.5 2z"/>
			<path class="s0" d="m74 6.6h1.9v1.5q0.6-0.9 1.6-1.3 1-0.5 2.2-0.5 1.5 0 2.8 0.8 1.2 0.7 1.9 2 0.8 1.3 0.8 2.9 0 1.6-0.8 2.9-0.7 1.3-1.9 2-1.3 0.8-2.8 0.8-1.2 0-2.2-0.5-1-0.4-1.6-1.3v5.6h-1.9zm2.4 7.4q0.5 0.8 1.3 1.3 0.8 0.6 1.8 0.6 1.1 0 1.9-0.6 0.8-0.5 1.3-1.3 0.4-0.9 0.4-2 0-1.1-0.4-2-0.5-0.9-1.3-1.4-0.8-0.5-1.9-0.5-1 0-1.8 0.5-0.8 0.5-1.3 1.4-0.5 0.9-0.5 2 0 1.1 0.5 2z"/>
			<path class="s1" d="m88.3 16.9q-1.3-0.8-1.8-2.1l1.5-0.8q0.5 1 1.3 1.5 0.8 0.6 1.8 0.6c0.6 0 1.1-0.2 1.5-0.5q0.6-0.4 0.6-1.1 0-0.7-0.5-1.1-0.6-0.4-1.2-0.5l-1.6-0.2q-1.5-0.3-2.2-1.2-0.8-0.8-0.8-2 0-0.9 0.5-1.7 0.5-0.7 1.4-1.1 0.9-0.4 2-0.4 1.4 0 2.6 0.7 1.1 0.7 1.6 2l-1.5 0.7q-0.4-0.8-1.2-1.3-0.7-0.4-1.6-0.4c-0.5 0-1 0.1-1.3 0.4q-0.5 0.4-0.5 1 0 0.7 0.5 1.1 0.4 0.4 1 0.5l1.8 0.2q1.4 0.4 2.2 1.2 0.7 0.9 0.7 2.1 0 0.9-0.5 1.6-0.5 0.7-1.4 1.1-0.9 0.5-2.1 0.5-1.6 0-2.8-0.8z"/>
			<path class="s1" d="m96.7 5.1q-0.3-0.4-0.3-0.9 0-0.5 0.3-0.9 0.4-0.3 1-0.3 0.5 0 0.9 0.3 0.3 0.4 0.3 0.9 0 0.5-0.3 0.9-0.4 0.4-0.9 0.4-0.6 0-1-0.4zm0 1.5h1.9v10.8h-1.9z"/>
			<path class="s1" d="m103.3 21.1q-1.3-0.8-1.9-2.1l1.8-0.8q0.3 0.8 1.1 1.3 0.9 0.5 2 0.5 1.5 0 2.4-0.8 1-0.8 1-2.2v-1.6q-0.6 0.9-1.6 1.3-0.9 0.5-2 0.5-1.6 0-2.8-0.8-1.2-0.7-1.9-1.9-0.7-1.3-0.7-2.8 0-1.5 0.7-2.7 0.7-1.3 1.9-2 1.2-0.7 2.7-0.7 1.2 0 2.1 0.5 1 0.4 1.7 1.3v-1.6h1.8v10.5q0 1.4-0.6 2.5-0.7 1.1-1.9 1.7-1.2 0.7-2.7 0.7-1.8 0-3.1-0.8zm-0.2-7.6q0.5 0.9 1.3 1.4 0.8 0.4 1.8 0.4c0.7 0 1.2-0.1 1.8-0.4q0.8-0.5 1.2-1.4 0.5-0.8 0.5-1.8 0-1-0.5-1.8-0.4-0.8-1.2-1.3-0.8-0.5-1.8-0.5c-0.6 0-1.3 0.2-1.8 0.5q-0.8 0.5-1.3 1.3-0.4 0.8-0.4 1.8 0 1 0.4 1.8z"/>
			<path class="s1" d="m113.7 6.6h4.6q2.1 0 3.3 1.1 1.2 1.1 1.2 3.1v6.6h-1.9v-6.5q0-1.2-0.7-1.9-0.7-0.6-1.9-0.6h-2.7v9h-1.9v-10.8z"/>
			<path class="s2" d="m7.9 0q-0.1 0-0.1 0h-0.1z"/>
			<path class="s3" d="m14.2 6.6c-3.6-0.1-6.3 0-9.9 0h-0.5c-0.4 0-0.6-0.5-0.5-1 0.3-1.3 1.1-3.5 2.2-4.7q0.7-0.3 1.3-0.3c0.5 0 0.9 0.1 1.3 0.2q0.7 0.3 1.3 0.9z"/>
			<path class="s4" d="m33.9 14.3h-11.2q-0.5 0-1-0.2-0.4-0.2-0.7-0.5l-3.1-3.2-0.1-0.1-3.6-3.7-4.8-4.9q-0.6-0.6-1.3-0.9-0.6-0.2-1.3-0.2-0.6 0-1.3 0.3 0.1 0 0.1 0 0 0 0 0c0.2-0.2 0.7-0.6 1.6-0.8q0.3-0.1 0.6-0.1 0 0 0.1 0 0.1 0 0.2 0h8.5 3.4q0.4 0 0.8 0.1c0.4 0 0.7 0.2 1 0.5l12.2 12.5 0.3 0.3c0.3 0.3 0.1 0.9-0.4 0.9z"/>
			<path class="s2" d="m26.7 24h-0.2q0.1 0 0.2 0z"/>
			<path class="s5" d="m27.9 23.7q0.5-0.2 0.7-0.4c-0.1 0.1-0.4 0.3-0.7 0.4z"/>
			<path class="s6" d="m31.1 18.4c-0.3 1.3-1 3.5-2.2 4.7q-0.6 0.3-1.3 0.3c-0.4 0-0.9-0.1-1.3-0.2q-0.7-0.3-1.3-0.9l-4.8-4.9c3.6 0.1 6.3 0 9.9 0h0.5c0.4 0 0.7 0.5 0.5 1z"/>
			<path class="s7" d="m28.9 23.1q0 0 0 0 0 0-0.1 0 0 0.1-0.2 0.2-0.2 0.2-0.7 0.4-0.3 0.1-0.7 0.2-0.2 0.1-0.5 0.1-0.1 0-0.2 0-0.1 0-0.1 0h-8.6-3.4q-0.4 0-0.7-0.1c-0.4 0-0.8-0.2-1-0.5l-12.3-12.5-0.2-0.3c-0.4-0.3-0.1-0.9 0.3-0.9h11.2q0.5 0 1 0.2 0.4 0.2 0.7 0.5l3.1 3.2 0.1 0.1 3.6 3.7 4.8 4.9q0.6 0.6 1.3 0.9 0.6 0.2 1.3 0.2 0.7 0 1.3-0.3z"/>
			<path class="s8" d="m28.9 23.1q0 0-0.1 0 0.1 0 0.1 0z"/>
		</g>
	</g>
</svg>